<svg xmlns="http://www.w3.org/2000/svg" version="1.1" xmlns:xlink="http://www.w3.org/1999/xlink" width="512" height="512" x="0" y="0" viewBox="0 0 512 512" style="enable-background:new 0 0 512 512" xml:space="preserve" class=""><g><path d="M512 156.36v-35.57c0-9.61-7.82-17.43-17.43-17.43a22.912 22.912 0 0 1-16.293-6.739c-4.351-4.36-6.75-10.148-6.75-16.3V17.687C471.527 7.934 463.594 0 453.84 0h-21.332c-9.754 0-17.688 7.938-17.688 17.688v36.66c0 22.742-18.136 41.547-40.425 41.922-11.082.171-21.614-4.004-29.536-11.797-7.925-7.797-12.289-18.211-12.289-29.325v-37.46C332.57 7.934 324.633 0 314.88 0H293.55c-9.754 0-17.692 7.938-17.692 17.688v22.601a7.5 7.5 0 0 0 7.5 7.5c4.145 0 7.5-3.355 7.5-7.5V17.687A2.693 2.693 0 0 1 293.551 15h21.328a2.693 2.693 0 0 1 2.691 2.688v37.46c0 15.168 5.957 29.38 16.77 40.016 10.812 10.637 25.125 16.324 40.305 16.106 30.425-.516 55.175-26.051 55.175-56.922v-36.66A2.692 2.692 0 0 1 432.508 15h21.332a2.692 2.692 0 0 1 2.687 2.688V80.32c0 10.153 3.953 19.707 11.145 26.907 7.191 7.18 16.742 11.132 26.898 11.132 1.34 0 2.43 1.09 2.43 2.43v30.988l-123.309 59.16-123.3-59.156V120.79c0-.828.386-1.39.726-1.73.262-.262.828-.7 1.703-.7 20.977 0 38.04-17.062 38.04-38.039V70.29a7.5 7.5 0 1 0-15 0v10.03c0 12.703-10.337 23.04-23.04 23.04-4.672 0-9.054 1.816-12.324 5.105a17.318 17.318 0 0 0-5.105 12.324v35.453c-.004.168-.004.336 0 .504v124.621l-38.57 23.117a36.192 36.192 0 0 0-17.962-4.796h-44.75V170.125h44.75c19.88 0 36.051-16.172 36.051-36.05 0-19.88-16.172-36.052-36.05-36.052h-7.856v-8.191c0-16.23-13.207-29.434-29.438-29.434h-7.457V45.7c0-8.547-6.953-15.5-15.5-15.5H96.301c-8.547 0-15.5 6.953-15.5 15.5v14.7h-7.457c-16.23 0-29.438 13.203-29.438 29.433v8.191h-7.855c-3.293 0-6.555.446-9.7 1.32a7.504 7.504 0 0 0-5.21 9.243c1.113 3.988 5.246 6.316 9.242 5.207a21.062 21.062 0 0 1 5.668-.77h142.808c11.61 0 21.051 9.442 21.051 21.051 0 11.606-9.441 21.047-21.05 21.047H36.05c-11.609 0-21.05-9.441-21.05-21.047 0-1.191.102-2.39.297-3.554a7.5 7.5 0 1 0-14.79-2.504A36.55 36.55 0 0 0 0 134.074c0 19.88 16.172 36.051 36.05 36.051H80.8v129.563H36.05c-19.878 0-36.05 16.171-36.05 36.05 0 9.617 3.746 18.672 10.563 25.5 6.816 6.805 15.87 10.551 25.488 10.551h7.86v8.188c0 16.234 13.202 29.441 29.429 29.441h7.46v14.7c0 8.546 6.954 15.5 15.5 15.5h22.31c8.546 0 15.5-6.954 15.5-15.5v-14.7h.296a52.573 52.573 0 0 0 5.121 5.785c10.075 9.84 23.141 14.848 36.457 14.848H446.38c15.789 0 28.637-12.848 28.637-28.64v-44.423h4.004c18.187 0 32.98-14.797 32.98-32.98V156.359zM95.8 45.7c0-.274.223-.5.5-.5h22.31c.277 0 .5.226.5.5v14.698H95.8zM58.907 98.022v-8.191c0-7.96 6.477-14.434 14.438-14.434h68.222c7.961 0 14.438 6.473 14.438 14.434v8.191zM314.523 264.43a8.016 8.016 0 0 1 7.512 5.265c8.707 24.024 31.727 40.164 57.274 40.164 26.093 0 49.273-16.597 57.675-41.3a6.093 6.093 0 0 1 5.77-4.13h4.66c6.95 0 12.602 5.653 12.602 12.602v94.485H356.18l-24.602-35.25a7.5 7.5 0 0 0-12.3 8.586l18.609 26.664H319.89l-46.329-66.395 12.692-7.61 15.863 22.739a7.499 7.499 0 0 0 6.16 3.21c1.48 0 2.977-.437 4.282-1.35a7.502 7.502 0 0 0 1.863-10.442l-15.965-22.883c4.242-4.781 6.707-11.039 6.707-17.57v-6.785zm-30.402 107.086-35.781-51.278 12.324-7.386 40.934 58.664zm-36.293 0-25.078-35.938 12.691-7.605 30.387 43.547h-18zm-69.46-38.485c.382.696.82 1.367 1.308 2.004 4.996 6.5 12.566 9.98 20.273 9.98 3.285 0 6.598-.632 9.746-1.937l19.844 28.438h-90.215c1.844-10.543 8.211-20.004 17.531-25.586zm111.796-67v5.188a11.47 11.47 0 0 1-5.43 9.715 8.211 8.211 0 0 0-.394.242l-25.18 15.09c-.129.074-.258.152-.387.234l-24.957 14.957a2.91 2.91 0 0 0-.144.09l-28.313 16.969a10.55 10.55 0 0 1-13.793-2.621.563.563 0 0 1-.109-.473.561.561 0 0 1 .25-.383l8.59-5.148c.098-.055.2-.118.297-.18l89.234-53.488c.113-.067.223-.13.336-.192zM95.801 170.125h23.308v129.563H95.801zM58.91 379.98v-8.19h42.37a7.5 7.5 0 1 0 0-15h-65.23a20.94 20.94 0 0 1-14.883-6.157C17.191 346.645 15 341.355 15 335.738c0-11.605 9.441-21.05 21.05-21.05h142.81c.304 0 .605.007.906.019l-30.621 18.355c-15.649 9.38-25.368 26.536-25.368 44.782 0 4.984.703 9.808 2.012 14.375.016.058.035.117.05.176l.036.117c.184.64.383 1.273.594 1.906h-53.13c-7.956 0-14.429-6.477-14.429-14.438zm60.198 44.137c0 .274-.226.5-.5.5H96.301a.504.504 0 0 1-.5-.5v-14.699h23.308zm340.907-22.707c0 7.524-6.118 13.64-13.641 13.64-173 0-270.586.009-271.383-.01-17.094-.45-31.351-12.485-35.195-28.524H243.73c.067.004.13.004.196.004s.133 0 .199-.004h35.895c.066.004.128.004.195.004s.133 0 .2-.004h35.374c.066.004.133.004.195.004.067 0 .133 0 .2-.004h35.894c.067.004.129.004.195.004.067 0 .133 0 .2-.004h107.543zm19.004-59.422h-4.004v-64.957c0-15.219-12.383-27.601-27.602-27.601h-4.66a21.095 21.095 0 0 0-19.973 14.297c-6.332 18.62-23.804 31.128-43.472 31.128-19.262 0-36.61-12.164-43.176-30.27-3.285-9.065-11.969-15.155-21.613-15.155-16.72.43-23.09-1.64-32.403 3.93l-31.73 19.015V168.418l120.058 57.602a7.509 7.509 0 0 0 6.489 0l120.062-57.606v155.594c.004 9.914-8.062 17.98-17.976 17.98zm0 0" fill="#ffffff" opacity="1" data-original="#000000" class=""></path><path d="M365.871 132.145h-5.039a7.497 7.497 0 0 0-7.5 7.5 7.5 7.5 0 0 0 7.5 7.5h1.586v25.94h-.914a7.497 7.497 0 0 0-7.5 7.5c0 4.145 3.355 7.5 7.5 7.5h16.828c4.145 0 7.5-3.355 7.5-7.5 0-4.144-3.355-7.5-7.5-7.5h-.914v-29.394c0-6.367-5.18-11.546-11.547-11.546zm0 0" fill="#ffffff" opacity="1" data-original="#000000" class=""></path></g></svg>